<svg xmlns="http://www.w3.org/2000/svg" xmlns:xlink="http://www.w3.org/1999/xlink" width="27px" height="24px" viewBox="0 0 27 24" version="1.1">
<g id="surface1">
<path style="fill:#344050" d="M 13.496094 0 C 13.925781 0 14.320312 0.246094 14.507812 0.632812 L 17.722656 7.257812 L 24.910156 8.320312 C 25.332031 8.382812 25.679688 8.675781 25.8125 9.078125 C 25.945312 9.488281 25.835938 9.933594 25.539062 10.226562 L 20.324219 15.394531 L 21.558594 22.683594 C 21.628906 23.105469 21.453125 23.535156 21.101562 23.785156 C 20.757812 24.03125 20.253906 24.066406 19.917969 23.863281 L 13.496094 20.433594 L 7.035156 23.863281 C 6.699219 24.066406 6.238281 24.03125 5.886719 23.785156 C 5.539062 23.535156 5.367188 23.105469 5.394531 22.683594 L 6.664062 15.394531 L 1.457031 10.226562 C 1.15625 9.933594 1.046875 9.488281 1.179688 9.078125 C 1.3125 8.675781 1.664062 8.382812 2.085938 8.320312 L 9.265625 7.257812 L 12.484375 0.632812 C 12.675781 0.246094 13.0625 0 13.496094 0 Z M 13.496094 3.699219 L 11.035156 8.773438 C 10.871094 9.109375 10.550781 9.34375 10.1875 9.398438 L 4.640625 10.214844 L 8.667969 14.203125 C 8.925781 14.460938 9.042969 14.832031 8.980469 15.191406 L 8.035156 20.796875 L 12.964844 18.164062 C 13.296875 17.984375 13.695312 17.984375 14.023438 18.164062 L 18.957031 20.796875 L 18.007812 15.191406 C 17.949219 14.832031 18.070312 14.460938 18.328125 14.203125 L 22.355469 10.214844 L 16.808594 9.398438 C 16.4375 9.34375 16.121094 9.109375 15.960938 8.773438 Z M 13.496094 3.699219 "/>
</g>
</svg>