<svg xmlns="http://www.w3.org/2000/svg" xmlns:xlink="http://www.w3.org/1999/xlink" width="16px" height="14px" viewBox="0 0 15 14" version="1.1">
<g id="surface1">
<path style=" stroke:none;fill-rule:nonzero;fill:#344050;fill-opacity:1;" d="M 3.949219 12.839844 C 3.789062 13.019531 3.566406 13.125 3.332031 13.125 C 3.097656 13.125 2.878906 13.019531 2.71875 12.839844 L 0.425781 10.214844 C 0.117188 9.859375 0.136719 9.304688 0.480469 8.980469 C 0.820312 8.65625 1.347656 8.675781 1.65625 9.035156 L 2.5 10 L 2.5 1.75 C 2.5 1.265625 2.871094 0.875 3.332031 0.875 C 3.792969 0.875 4.167969 1.265625 4.167969 1.75 L 4.167969 10 L 5.011719 9.03125 C 5.320312 8.675781 5.847656 8.652344 6.1875 8.976562 C 6.527344 9.300781 6.550781 9.859375 6.238281 10.210938 L 3.949219 12.835938 Z M 8.332031 0.875 L 9.167969 0.875 C 9.628906 0.875 10 1.265625 10 1.75 C 10 2.234375 9.628906 2.625 9.167969 2.625 L 8.332031 2.625 C 7.871094 2.625 7.5 2.234375 7.5 1.75 C 7.5 1.265625 7.871094 0.875 8.332031 0.875 Z M 8.332031 4.375 L 10.832031 4.375 C 11.292969 4.375 11.667969 4.765625 11.667969 5.25 C 11.667969 5.734375 11.292969 6.125 10.832031 6.125 L 8.332031 6.125 C 7.871094 6.125 7.5 5.734375 7.5 5.25 C 7.5 4.765625 7.871094 4.375 8.332031 4.375 Z M 8.332031 7.875 L 12.5 7.875 C 12.960938 7.875 13.332031 8.265625 13.332031 8.75 C 13.332031 9.234375 12.960938 9.625 12.5 9.625 L 8.332031 9.625 C 7.871094 9.625 7.5 9.234375 7.5 8.75 C 7.5 8.265625 7.871094 7.875 8.332031 7.875 Z M 8.332031 11.375 L 14.167969 11.375 C 14.628906 11.375 15 11.765625 15 12.25 C 15 12.734375 14.628906 13.125 14.167969 13.125 L 8.332031 13.125 C 7.871094 13.125 7.5 12.734375 7.5 12.25 C 7.5 11.765625 7.871094 11.375 8.332031 11.375 Z M 8.332031 11.375 "/>
</g>
</svg>
