<?xml version="1.0" encoding="UTF-8"?>
<svg xmlns="http://www.w3.org/2000/svg" xmlns:xlink="http://www.w3.org/1999/xlink" width="24px" height="17px" viewBox="0 0 23 17" version="1.1">
<g id="surface1">
<path style=" stroke:none;fill-rule:nonzero;fill:rgb(100%,100%,100%);fill-opacity:1;" d="M 1.285156 0.179688 L 21.710938 0.179688 C 22.40625 0.179688 22.972656 0.769531 22.972656 1.492188 L 22.972656 8.5 L 0.0234375 8.5 L 0.0234375 1.492188 C 0.0234375 0.769531 0.589844 0.179688 1.285156 0.179688 Z M 1.285156 0.179688 "/>
<path style=" stroke:none;fill-rule:nonzero;fill:rgb(83.529412%,16.862745%,11.764706%);fill-opacity:1;" d="M 0.0234375 8.5 L 22.976562 8.5 L 22.976562 15.507812 C 22.976562 16.230469 22.410156 16.820312 21.714844 16.820312 L 1.285156 16.820312 C 0.589844 16.820312 0.0234375 16.226562 0.0234375 15.507812 Z M 0.0234375 8.5 "/>
<path style=" stroke:none;fill-rule:nonzero;fill:rgb(0%,22.352941%,65.098039%);fill-opacity:1;" d="M 0.0234375 5.726562 L 22.976562 5.726562 L 22.976562 11.273438 L 0.0234375 11.273438 Z M 0.0234375 5.726562 "/>
<path style="fill:none;stroke-width:0.1199;stroke-linecap:butt;stroke-linejoin:miter;stroke:rgb(80%,80%,80%);stroke-opacity:1;stroke-miterlimit:2.6131;" d="M 3.09108 0.0611681 L 52.219524 0.0611681 C 53.891902 0.0611681 55.254232 1.422212 55.254232 3.089716 L 55.254232 35.42127 C 55.254232 37.088774 53.891902 38.449818 52.219524 38.449818 L 3.09108 38.449818 C 1.418702 38.449818 0.0563723 37.079761 0.0563723 35.42127 L 0.0563723 3.089716 C 0.0563723 1.422212 1.418702 0.0611681 3.09108 0.0611681 Z M 3.09108 0.0611681 " transform="matrix(0.415763,0,0,0.433376,0,0.153179)"/>
</g>
</svg>
