<?xml version="1.0" encoding="UTF-8"?>
<svg xmlns="http://www.w3.org/2000/svg" xmlns:xlink="http://www.w3.org/1999/xlink" width="24px" height="17px" viewBox="0 0 24 17" version="1.1">
<g id="surface1">
<path style=" stroke:none;fill-rule:nonzero;fill:rgb(69.803922%,13.333333%,20.392157%);fill-opacity:1;" d="M 1.390625 0 L 22.605469 0 C 23.328125 0 23.914062 0.601562 23.914062 1.339844 L 23.914062 15.652344 C 23.914062 16.394531 23.328125 16.996094 22.605469 16.996094 L 1.390625 16.996094 C 0.667969 17 0.0820312 16.398438 0.0820312 15.660156 L 0.0820312 1.339844 C 0.0820312 0.601562 0.667969 0 1.390625 0 Z M 1.390625 0 "/>
<path style=" stroke:none;fill-rule:nonzero;fill:rgb(100%,100%,100%);fill-opacity:1;" d="M 0.0898438 1.207031 L 23.914062 1.207031 C 23.917969 1.253906 23.921875 1.296875 23.921875 1.347656 L 23.921875 2.648438 L 0.0820312 2.648438 L 0.0820312 1.339844 C 0.0820312 1.296875 0.0859375 1.253906 0.0898438 1.207031 Z M 23.917969 3.839844 L 23.917969 5.273438 L 0.0820312 5.273438 L 0.0820312 3.839844 Z M 23.917969 6.46875 L 23.917969 7.902344 L 0.0820312 7.902344 L 0.0820312 6.46875 Z M 23.917969 9.097656 L 23.917969 10.53125 L 0.0820312 10.53125 L 0.0820312 9.097656 Z M 23.917969 11.726562 L 23.917969 13.160156 L 0.0820312 13.160156 L 0.0820312 11.726562 Z M 23.917969 14.355469 L 23.917969 15.652344 C 23.917969 15.699219 23.914062 15.746094 23.910156 15.792969 L 0.0898438 15.792969 C 0.0859375 15.75 0.0820312 15.703125 0.0820312 15.660156 L 0.0820312 14.363281 L 23.917969 14.363281 Z M 23.917969 14.355469 "/>
<path style=" stroke:none;fill-rule:nonzero;fill:rgb(23.529412%,23.137255%,43.137255%);fill-opacity:1;" d="M 9.0625 0 L 9.0625 9.15625 L 0.0820312 9.15625 L 0.0820312 1.339844 C 0.0820312 0.601562 0.667969 0 1.390625 0 Z M 9.0625 0 "/>
<path style=" stroke:none;fill-rule:nonzero;fill:rgb(100%,100%,100%);fill-opacity:1;" d="M 0.613281 1.265625 L 0.910156 2.21875 L 0.125 1.628906 L 1.101562 1.628906 L 0.3125 2.21875 Z M 0.613281 1.265625 "/>
<path style=" stroke:none;fill-rule:nonzero;fill:rgb(100%,100%,100%);fill-opacity:1;" d="M 0.613281 3.109375 L 0.910156 4.058594 L 0.125 3.472656 L 1.101562 3.472656 L 0.3125 4.058594 Z M 0.613281 3.109375 "/>
<path style=" stroke:none;fill-rule:nonzero;fill:rgb(100%,100%,100%);fill-opacity:1;" d="M 0.613281 4.949219 L 0.910156 5.902344 L 0.125 5.3125 L 1.101562 5.3125 L 0.3125 5.902344 Z M 0.613281 4.949219 "/>
<path style=" stroke:none;fill-rule:nonzero;fill:rgb(100%,100%,100%);fill-opacity:1;" d="M 0.613281 6.792969 L 0.910156 7.742188 L 0.125 7.152344 L 1.101562 7.152344 L 0.3125 7.742188 Z M 0.613281 6.792969 "/>
<path style=" stroke:none;fill-rule:nonzero;fill:rgb(100%,100%,100%);fill-opacity:1;" d="M 1.667969 0.34375 L 1.96875 1.296875 L 1.179688 0.707031 L 2.160156 0.707031 L 1.363281 1.296875 Z M 1.667969 0.34375 "/>
<path style=" stroke:none;fill-rule:nonzero;fill:rgb(100%,100%,100%);fill-opacity:1;" d="M 1.667969 2.1875 L 1.96875 3.140625 L 1.179688 2.550781 L 2.160156 2.550781 L 1.363281 3.140625 Z M 1.667969 2.1875 "/>
<path style=" stroke:none;fill-rule:nonzero;fill:rgb(100%,100%,100%);fill-opacity:1;" d="M 1.667969 4.027344 L 1.96875 4.980469 L 1.179688 4.390625 L 2.160156 4.390625 L 1.363281 4.980469 Z M 1.667969 4.027344 "/>
<path style=" stroke:none;fill-rule:nonzero;fill:rgb(100%,100%,100%);fill-opacity:1;" d="M 1.667969 5.871094 L 1.96875 6.820312 L 1.179688 6.234375 L 2.160156 6.234375 L 1.363281 6.820312 Z M 1.667969 5.871094 "/>
<path style=" stroke:none;fill-rule:nonzero;fill:rgb(100%,100%,100%);fill-opacity:1;" d="M 1.667969 7.710938 L 1.96875 8.664062 L 1.179688 8.074219 L 2.160156 8.074219 L 1.363281 8.664062 Z M 1.667969 7.710938 "/>
<path style=" stroke:none;fill-rule:nonzero;fill:rgb(100%,100%,100%);fill-opacity:1;" d="M 2.722656 1.265625 L 3.027344 2.21875 L 2.238281 1.628906 L 3.210938 1.628906 L 2.421875 2.21875 Z M 2.722656 1.265625 "/>
<path style=" stroke:none;fill-rule:nonzero;fill:rgb(100%,100%,100%);fill-opacity:1;" d="M 2.722656 3.109375 L 3.027344 4.058594 L 2.238281 3.472656 L 3.210938 3.472656 L 2.421875 4.058594 Z M 2.722656 3.109375 "/>
<path style=" stroke:none;fill-rule:nonzero;fill:rgb(100%,100%,100%);fill-opacity:1;" d="M 2.722656 4.949219 L 3.027344 5.902344 L 2.238281 5.3125 L 3.210938 5.3125 L 2.421875 5.902344 Z M 2.722656 4.949219 "/>
<path style=" stroke:none;fill-rule:nonzero;fill:rgb(100%,100%,100%);fill-opacity:1;" d="M 2.722656 6.792969 L 3.027344 7.742188 L 2.238281 7.152344 L 3.210938 7.152344 L 2.421875 7.742188 Z M 2.722656 6.792969 "/>
<path style=" stroke:none;fill-rule:nonzero;fill:rgb(100%,100%,100%);fill-opacity:1;" d="M 3.78125 0.34375 L 4.082031 1.296875 L 3.292969 0.707031 L 4.269531 0.707031 L 3.480469 1.296875 Z M 3.78125 0.34375 "/>
<path style=" stroke:none;fill-rule:nonzero;fill:rgb(100%,100%,100%);fill-opacity:1;" d="M 3.78125 2.1875 L 4.082031 3.140625 L 3.292969 2.550781 L 4.269531 2.550781 L 3.480469 3.140625 Z M 3.78125 2.1875 "/>
<path style=" stroke:none;fill-rule:nonzero;fill:rgb(100%,100%,100%);fill-opacity:1;" d="M 3.78125 4.027344 L 4.082031 4.980469 L 3.292969 4.390625 L 4.269531 4.390625 L 3.480469 4.980469 Z M 3.78125 4.027344 "/>
<path style=" stroke:none;fill-rule:nonzero;fill:rgb(100%,100%,100%);fill-opacity:1;" d="M 3.78125 5.871094 L 4.082031 6.820312 L 3.292969 6.234375 L 4.269531 6.234375 L 3.480469 6.820312 Z M 3.78125 5.871094 "/>
<path style=" stroke:none;fill-rule:nonzero;fill:rgb(100%,100%,100%);fill-opacity:1;" d="M 3.78125 7.710938 L 4.082031 8.664062 L 3.292969 8.074219 L 4.269531 8.074219 L 3.480469 8.664062 Z M 3.78125 7.710938 "/>
<path style=" stroke:none;fill-rule:nonzero;fill:rgb(100%,100%,100%);fill-opacity:1;" d="M 4.835938 1.265625 L 5.136719 2.21875 L 4.347656 1.628906 L 5.324219 1.628906 L 4.535156 2.21875 Z M 4.835938 1.265625 "/>
<path style=" stroke:none;fill-rule:nonzero;fill:rgb(100%,100%,100%);fill-opacity:1;" d="M 4.835938 3.109375 L 5.136719 4.058594 L 4.347656 3.472656 L 5.324219 3.472656 L 4.535156 4.058594 Z M 4.835938 3.109375 "/>
<path style=" stroke:none;fill-rule:nonzero;fill:rgb(100%,100%,100%);fill-opacity:1;" d="M 4.835938 4.949219 L 5.136719 5.902344 L 4.347656 5.3125 L 5.324219 5.3125 L 4.535156 5.902344 Z M 4.835938 4.949219 "/>
<path style=" stroke:none;fill-rule:nonzero;fill:rgb(100%,100%,100%);fill-opacity:1;" d="M 4.835938 6.792969 L 5.136719 7.742188 L 4.347656 7.152344 L 5.324219 7.152344 L 4.535156 7.742188 Z M 4.835938 6.792969 "/>
<path style=" stroke:none;fill-rule:nonzero;fill:rgb(100%,100%,100%);fill-opacity:1;" d="M 5.894531 0.34375 L 6.195312 1.296875 L 5.40625 0.707031 L 6.382812 0.707031 L 5.59375 1.296875 Z M 5.894531 0.34375 "/>
<path style=" stroke:none;fill-rule:nonzero;fill:rgb(100%,100%,100%);fill-opacity:1;" d="M 5.894531 2.1875 L 6.195312 3.140625 L 5.40625 2.550781 L 6.382812 2.550781 L 5.59375 3.140625 Z M 5.894531 2.1875 "/>
<path style=" stroke:none;fill-rule:nonzero;fill:rgb(100%,100%,100%);fill-opacity:1;" d="M 5.894531 4.027344 L 6.195312 4.980469 L 5.40625 4.390625 L 6.382812 4.390625 L 5.59375 4.980469 Z M 5.894531 4.027344 "/>
<path style=" stroke:none;fill-rule:nonzero;fill:rgb(100%,100%,100%);fill-opacity:1;" d="M 5.894531 5.871094 L 6.195312 6.820312 L 5.40625 6.234375 L 6.382812 6.234375 L 5.59375 6.820312 Z M 5.894531 5.871094 "/>
<path style=" stroke:none;fill-rule:nonzero;fill:rgb(100%,100%,100%);fill-opacity:1;" d="M 5.894531 7.710938 L 6.195312 8.664062 L 5.40625 8.074219 L 6.382812 8.074219 L 5.59375 8.664062 Z M 5.894531 7.710938 "/>
<path style=" stroke:none;fill-rule:nonzero;fill:rgb(100%,100%,100%);fill-opacity:1;" d="M 6.949219 1.265625 L 7.25 2.21875 L 6.460938 1.628906 L 7.4375 1.628906 L 6.648438 2.21875 Z M 6.949219 1.265625 "/>
<path style=" stroke:none;fill-rule:nonzero;fill:rgb(100%,100%,100%);fill-opacity:1;" d="M 6.949219 3.109375 L 7.25 4.058594 L 6.460938 3.472656 L 7.4375 3.472656 L 6.648438 4.058594 Z M 6.949219 3.109375 "/>
<path style=" stroke:none;fill-rule:nonzero;fill:rgb(100%,100%,100%);fill-opacity:1;" d="M 6.949219 4.949219 L 7.25 5.902344 L 6.460938 5.3125 L 7.4375 5.3125 L 6.648438 5.902344 Z M 6.949219 4.949219 "/>
<path style=" stroke:none;fill-rule:nonzero;fill:rgb(100%,100%,100%);fill-opacity:1;" d="M 6.949219 6.792969 L 7.25 7.742188 L 6.460938 7.152344 L 7.4375 7.152344 L 6.648438 7.742188 Z M 6.949219 6.792969 "/>
<path style=" stroke:none;fill-rule:nonzero;fill:rgb(100%,100%,100%);fill-opacity:1;" d="M 8.003906 0.34375 L 8.308594 1.296875 L 7.519531 0.707031 L 8.492188 0.707031 L 7.703125 1.296875 Z M 8.003906 0.34375 "/>
<path style=" stroke:none;fill-rule:nonzero;fill:rgb(100%,100%,100%);fill-opacity:1;" d="M 8.003906 2.1875 L 8.308594 3.140625 L 7.519531 2.550781 L 8.492188 2.550781 L 7.703125 3.140625 Z M 8.003906 2.1875 "/>
<path style=" stroke:none;fill-rule:nonzero;fill:rgb(100%,100%,100%);fill-opacity:1;" d="M 8.003906 4.027344 L 8.308594 4.980469 L 7.519531 4.390625 L 8.492188 4.390625 L 7.703125 4.980469 Z M 8.003906 4.027344 "/>
<path style=" stroke:none;fill-rule:nonzero;fill:rgb(100%,100%,100%);fill-opacity:1;" d="M 8.003906 5.871094 L 8.308594 6.820312 L 7.519531 6.234375 L 8.492188 6.234375 L 7.703125 6.820312 Z M 8.003906 5.871094 "/>
<path style=" stroke:none;fill-rule:nonzero;fill:rgb(100%,100%,100%);fill-opacity:1;" d="M 8.003906 7.710938 L 8.308594 8.664062 L 7.519531 8.074219 L 8.492188 8.074219 L 7.703125 8.664062 Z M 8.003906 7.710938 "/>
</g>
</svg>
